PathFileType	4	(X/Y/Z)	./resultDataOpenSim/trcMotMarkerGrf/sub09/qtm-05-02.trc
DataRate	CameraRate	NumFrames	NumMarkers	Units	OrigDataRate	OrigDataStartFrame	OrigNumFrames
250.000000	250.000000	12	24	m	250.000000	1	514
Frame#	Time	L.Toe.Tip			R.Toe.Tip			L.Ankle.Lat			R.Ankle.Lat			L.Ankle.Med			R.Ankle.Med			L.Heel			R.Heel			L.Knee.Lat			R.Knee.Lat			L.Knee.Med			R.Knee.Med			L.Thigh.Upper			R.Thigh.Upper			L.ASIS			R.ASIS			V.Sacral			L.Acromium			R.Acromium			C7			L.Elbow			R.Elbow			L.Wrist.Lat			R.Wrist.Lat
		X1	Y1	Z1	X2	Y2	Z2	X3	Y3	Z3	X4	Y4	Z4	X5	Y5	Z5	X6	Y6	Z6	X7	Y7	Z7	X8	Y8	Z8	X9	Y9	Z9	X10	Y10	Z10	X11	Y11	Z11	X12	Y12	Z12	X13	Y13	Z13	X14	Y14	Z14	X15	Y15	Z15	X16	Y16	Z16	X17	Y17	Z17	X18	Y18	Z18	X19	Y19	Z19	X20	Y20	Z20	X21	Y21	Z21	X22	Y22	Z22	X23	Y23	Z23	X24	Y24	Z24

1	0	-1.4495146	0.037381765	0.014273739	-0.91745025	0.088666167	0.13695605	-1.5999383	0.077613239	-0.021601136	-1.0684142	0.074882162	0.1583061	-1.5754018	0.094318456	0.07220602	-1.0562863	0.11483719	0.068890056	NaN	NaN	NaN	-1.1203381	0.03896625	0.099837437	-1.4596615	0.47073071	-0.087877259	-1.1272615	0.53041496	0.20272087	-1.4593595	0.47370343	0.037823977	-1.11917	0.51223373	0.07683596	-1.3589734	0.88036955	-0.13695388	-1.3349473	0.87746517	0.23317585	-1.2565827	0.95466495	-0.080911524	-1.2529006	0.96007934	0.15873825	-1.4185375	1.0202688	0.051406224	-1.2274982	1.4115388	-0.11500065	-1.2729241	1.4177367	0.2114339	-1.3146196	1.4681383	0.046364666	-1.3222302	1.0439623	-0.19093142	-1.4520174	1.1035324	0.27225041	-1.0634941	0.95723616	-0.15302242	-1.3899466	0.84321753	0.31850495
2	0.004	-1.4494671	0.037290461	0.014293705	-0.90014612	0.092356082	0.13686487	-1.5996673	0.078119507	-0.021526707	-1.0512309	0.074786032	0.15769858	-1.5743639	0.095028479	0.071901899	-1.0395022	0.11546217	0.068602808	NaN	NaN	NaN	-1.1016251	0.038005543	0.099073563	-1.4571357	0.47033196	-0.087793547	-1.1214755	0.52871594	0.2029135	-1.4576495	0.47326119	0.038228655	-1.1126413	0.51081699	0.076787597	-1.3538049	0.87929174	-0.13678162	-1.329681	0.87572823	0.23324034	-1.2510029	0.95330899	-0.080951596	-1.2472431	0.95854439	0.15884201	-1.4128538	1.0187637	0.0516875	-1.2218126	1.4101855	-0.1146417	-1.2678129	1.4163093	0.21175535	-1.309064	1.4667613	0.046608196	-1.3153256	1.042152	-0.19083161	-1.4467874	1.1024787	0.27230998	-1.0557949	0.95815274	-0.1525347	-1.3852538	0.84193195	0.31897707
3	0.008	-1.449423	0.037206306	0.014311574	-0.88309484	0.096194145	0.13681408	-1.5993847	0.078668861	-0.021461966	-1.0342473	0.074805803	0.15713117	-1.5734707	0.095708428	0.071653137	-1.0228953	0.11618125	0.068331252	NaN	NaN	NaN	-1.0830014	0.037080412	0.098459399	-1.454443	0.46997926	-0.08774255	-1.1158415	0.52705344	0.20292076	-1.4554476	0.47290446	0.038450511	-1.106046	0.50940758	0.076716314	-1.3486172	0.87819876	-0.13676847	-1.3243179	0.87400196	0.23331239	-1.245417	0.95198336	-0.080989308	-1.2415048	0.95699488	0.15892657	-1.4071243	1.0172487	0.052028163	-1.2161171	1.4088316	-0.11428509	-1.2626014	1.4148852	0.21207365	-1.3034877	1.4654053	0.046850222	-1.3084128	1.0403661	-0.19074326	-1.4415733	1.101441	0.27224002	-1.0481103	0.95901024	-0.15203956	-1.3805758	0.84064101	0.31941917
4	0.012	-1.4493808	0.037131088	0.014313228	-0.86647132	0.10025155	0.13689169	-1.5990899	0.079268911	-0.021411379	-1.0175413	0.075032537	0.15662359	-1.5727925	0.096340475	0.071488891	-1.006607	0.1170502	0.068079749	NaN	NaN	NaN	-1.064629	0.036247015	0.098058658	-1.4515313	0.46967312	-0.087718895	-1.1103791	0.52539244	0.2027392	-1.4526276	0.47263338	0.038470835	-1.0994359	0.50800041	0.076601716	-1.3433872	0.87708919	-0.13699461	-1.3188078	0.87228442	0.23339637	-1.2398158	0.95069	-0.081018498	-1.2356556	0.95543199	0.15898362	-1.4013322	1.0157084	0.052433722	-1.2103975	1.4074787	-0.11393084	-1.2572787	1.4134597	0.21239039	-1.2978736	1.4640665	0.047089915	-1.3014838	1.0386142	-0.19066689	-1.4362349	1.1003573	0.27198816	-1.0404499	0.95978366	-0.15153798	-1.3758782	0.83935042	0.31982399
5	0.016	-1.4493388	0.037059417	0.014292185	-0.85036868	0.10450395	0.13712473	-1.5987891	0.079901274	-0.021386564	-1.0010558	0.075550687	0.15620593	-1.5722841	0.096928992	0.071396802	-0.99070592	0.11807973	0.067852285	NaN	NaN	NaN	-1.0467045	0.035606698	0.09777747	-1.4484417	0.46939087	-0.087719797	-1.1049587	0.52369	0.20251259	-1.4493932	0.47239732	0.038389684	-1.0929251	0.50658354	0.076428024	-1.338107	0.87597938	-0.13734373	-1.3131604	0.87056683	0.23349106	-1.2341972	0.94941255	-0.081031081	-1.2297264	0.95387154	0.15902349	-1.3954999	1.0141328	0.052855619	-1.2046437	1.4061306	-0.11358014	-1.2518941	1.4120269	0.21270928	-1.2922223	1.4627349	0.047326085	-1.2945502	1.036899	-0.1905955	-1.430675	1.0991473	0.27162967	-1.0328303	0.96047215	-0.1510377	-1.3711491	0.83806741	0.32019746
6	0.02	-1.4492939	0.036987207	0.014257372	-0.83478786	0.10888181	0.13745116	-1.5984816	0.080557948	-0.021407707	-0.98459154	0.076465525	0.15592981	-1.5718207	0.097502638	0.071335102	-0.97516154	0.11926084	0.067656352	NaN	NaN	NaN	-1.0293067	0.035245072	0.09742619	-1.445219	0.4691138	-0.087753673	-1.0994065	0.52195611	0.20235239	-1.4459622	0.47216736	0.038290325	-1.0865456	0.50515634	0.076188828	-1.3327773	0.87488138	-0.13756253	-1.3073797	0.8688444	0.23359678	-1.228549	0.94814161	-0.081019266	-1.2237473	0.95232921	0.15906438	-1.3896477	1.0125316	0.053239861	-1.1988423	1.4047869	-0.11323487	-1.2464792	1.4105833	0.21303417	-1.2865333	1.4614099	0.047563132	-1.2876223	1.0352185	-0.19051399	-1.4250195	1.0978183	0.27131347	-1.0252587	0.96107535	-0.15054756	-1.366413	0.8367821	0.32054321
7	0.024	-1.4492403	0.036917002	0.014218253	-0.81969365	0.11330392	0.13782098	-1.5981541	0.081252252	-0.021485721	-0.96802388	0.077820768	0.15581357	-1.5713014	0.098096471	0.071262045	-0.9599525	0.12056969	0.067490701	NaN	NaN	NaN	-1.012435	0.035160832	0.096888052	-1.4418779	0.46883061	-0.087812387	-1.0936955	0.52020853	0.20224339	-1.4424153	0.47194226	0.038193572	-1.0802519	0.50374017	0.075893913	-1.3274034	0.87378619	-0.13750743	-1.3014485	0.86712122	0.23371806	-1.2228484	0.94689415	-0.080978406	-1.2177214	0.95081207	0.15910987	-1.383775	1.0109359	0.053575439	-1.1929923	1.4034452	-0.11288953	-1.2410358	1.4091329	0.21336742	-1.2808003	1.4600918	0.047812638	-1.2806994	1.0335616	-0.19039355	-1.4194432	1.0964428	0.27112765	-1.0177406	0.96158871	-0.15007452	-1.361671	0.83547773	0.32086015
8	0.028	-1.4491752	0.036853801	0.01417693	-0.80506535	0.11769303	0.13822421	-1.597787	0.081999482	-0.021620293	-0.95160289	0.079456426	0.15578812	-1.5707178	0.09872944	0.07115109	-0.94513521	0.12196337	0.067340035	NaN	NaN	NaN	-0.99608841	0.03528924	0.096209676	-1.4384101	0.46853561	-0.087879842	-1.0879319	0.51844655	0.20211539	-1.4387786	0.47170848	0.038097285	-1.0740038	0.50235861	0.075565607	-1.3219915	0.8726777	-0.13723712	-1.2953788	0.86540146	0.23385444	-1.21706	0.9457036	-0.08090657	-1.2116394	0.94931916	0.15915042	-1.3778688	1.0093712	0.053894364	-1.1871032	1.4021066	-0.11252668	-1.2355458	1.4076861	0.21371047	-1.2750204	1.4587727	0.048081938	-1.2737754	1.0319173	-0.19021171	-1.413969	1.0950741	0.27105664	-1.0102874	0.96201172	-0.14962001	-1.3568818	0.83415346	0.32114553
9	0.032	-1.4491005	0.03680164	0.014130931	-0.79091853	0.12199007	0.13862813	-1.597367	0.08279872	-0.021816079	-0.93586836	0.081060384	0.1557234	-1.570126	0.09940208	0.070986888	-0.93079057	0.12339862	0.067180784	NaN	NaN	NaN	-0.98023327	0.03556338	0.095572874	-1.4348026	0.46822389	-0.087949766	-1.0821412	0.51670469	0.20194693	-1.4350989	0.47143037	0.038015856	-1.0677903	0.50101919	0.075222773	-1.3165428	0.87155328	-0.13687499	-1.2891932	0.86369103	0.23400589	-1.2111453	0.9445847	-0.080802883	-1.2054969	0.94785243	0.15918746	-1.3719188	1.0078368	0.054231889	-1.1811808	1.4007769	-0.11213113	-1.2299855	1.4062522	0.21406398	-1.2692015	1.4574473	0.04836852	-1.2668499	1.0302911	-0.18997475	-1.4085237	1.0937325	0.27105396	-1.0029138	0.96235176	-0.14918103	-1.3520001	0.83282786	0.3213991
10	0.036	-1.4490175	0.036762254	0.014077591	-0.77729297	0.12615625	0.13896272	-1.5968949	0.083643176	-0.022083629	-0.92116276	0.082432721	0.15552532	-1.5695678	0.10011066	0.070763887	-0.9169624	0.12484568	0.066988274	NaN	NaN	NaN	-0.96479404	0.035950699	0.095158306	-1.4310477	0.4678921	-0.088026988	-1.0762567	0.51504107	0.20176004	-1.4313977	0.47109021	0.037971685	-1.0616074	0.49971992	0.074873149	-1.31105	0.87042851	-0.13648698	-1.2828791	0.86199877	0.23418038	-1.2051068	0.94351107	-0.080679708	-1.1992947	0.94642124	0.15923831	-1.3659239	1.0063219	0.054601899	-1.1752279	1.399462	-0.11171066	-1.2243493	1.4048337	0.21442777	-1.2633571	1.4561272	0.048670311	-1.2599289	1.0286995	-0.18970444	-1.4030445	1.0924194	0.27109305	-0.9956166	0.9626192	-0.14875351	-1.3470017	0.83151899	0.32162411
11	0.04	-1.4489264	0.036733669	0.01401535	-0.76422275	0.13015718	0.13917592	-1.5963765	0.084538446	-0.022425588	-0.90740335	0.083600499	0.15519426	-1.5690285	0.10085584	0.070486346	-0.90366504	0.12627805	0.066747551	NaN	NaN	NaN	-0.9497604	0.036449879	0.09495599	-1.4271397	0.46754595	-0.088121759	-1.0702667	0.51346884	0.20156516	-1.4276234	0.47071042	0.037963785	-1.0554462	0.49845614	0.074525097	-1.3055014	0.86932775	-0.13608238	-1.2764207	0.86032954	0.23437903	-1.1990205	0.94242885	-0.080575839	-1.1930357	0.94503576	0.15931588	-1.3598873	1.0048285	0.05500391	-1.1692445	1.3981654	-0.11129022	-1.2186593	1.403428	0.21479849	-1.2574921	1.4548301	0.048992365	-1.2530195	1.027151	-0.1894171	-1.3975079	1.0911258	0.27116239	-0.98834672	0.96281655	-0.14832893	-1.3418798	0.83022615	0.32182553
12	0.044	-1.4488293	0.036710184	0.013944346	-0.75172413	0.13395003	0.13926114	-1.5958157	0.085494584	-0.022834616	-0.89431922	0.084680825	0.15478932	-1.568461	0.10164566	0.070155768	-0.89090951	0.12766364	0.066456841	NaN	NaN	NaN	-0.93526265	0.037038654	0.09476836	-1.4230776	0.46719692	-0.08823943	-1.0642074	0.51196497	0.2013701	-1.423702	0.47031955	0.037963572	-1.0492948	0.49722392	0.074193496	-1.299887	0.86826373	-0.13565978	-1.2698239	0.85868901	0.23459054	-1.1930042	0.94129029	-0.080544178	-1.1867239	0.94370164	0.15941571	-1.3538096	1.0033698	0.055433251	-1.1632206	1.3968921	-0.11088463	-1.212939	1.4020342	0.21516895	-1.2515985	1.4535615	0.049343872	-1.2461264	1.0256423	-0.18911805	-1.3919172	1.0898397	0.27124915	-0.98103628	0.96293428	-0.14789484	-1.3366366	0.82893799	0.32200862
